# xmcd
#
# Track frame offsets: 
#        183
#        73120
#        89708
#        115395
#        130495
#        160570
#
# Disc length: 3037 seconds
#
# Revision: 1
# Processed by: cddbd v1.5.2PL0 Copyright (c) Steve Scherf et al.
# Submitted via: ExactAudioCopy v0.99pb3
#
DISCID=530bdb06
DTITLE=Santa Esmeralda - Best of Santa Esmeralda
DYEAR=1977
DGENRE=Rock
TTITLE0=Don't let me be misunderstood and Esmeralda suite
TTITLE1=Gloria
TTITLE2=You're my everything
TTITLE3=Hey! Gyp
TTITLE4=Generation
TTITLE5=The house of the rising sun and Quasimodo suite
EXTD=
EXTT0=
EXTT1=
EXTT2=
EXTT3=
EXTT4=
EXTT5=
PLAYORDER=
